PathFileType  4	(X/Y/Z) C:\Users\antoi\Documents\MyRepositories\mobilecap\ResultsAnalysis
DataRate	CameraRate	NumFrames	NumMarkers	Units	OrigDataRate	OrigDataStartFrame	OrigNumFrames
100.0	100.0	6	51	mm	100.0	71	141
Frame#	Time	r_knee			r_shank_antsup			r_ankle			r_calc			r_5meta			r_toe			L_knee			L_shank_antsup			L_ankle			L_calc			L_5meta			L_toe			r_sh2			r_sh3			r_sh4			L_sh2			L_sh3			r_thigh1			r_thigh2			r_thigh3			r_thigh4			r_thigh5			L_thigh1			L_thigh2			L_thigh3			L_thigh4			r.ASIS			r.PSIS			L.ASIS			L.PSIS			C7			R_Shoulder			L_Shoulder			R_Sternum			L_Sternum			R_humerus			R_elbow_med			R_elbow_lat			R_forearm			R_wrist_radius			R_wrist_ulna			L_humerus			L_elbow_med			L_elbow_lat			L_forearm			L_wrist_radius			L_wrist_ulna			R_HJC			L_HJC			R_HJC_reg			L_HJC_reg			
		X1	Y1	Z1	X2	Y2	Z2	X3	Y3	Z3	X4	Y4	Z4	X5	Y5	Z5	X6	Y6	Z6	X7	Y7	Z7	X8	Y8	Z8	X9	Y9	Z9	X10	Y10	Z10	X11	Y11	Z11	X12	Y12	Z12	X13	Y13	Z13	X14	Y14	Z14	X15	Y15	Z15	X16	Y16	Z16	X17	Y17	Z17	X18	Y18	Z18	X19	Y19	Z19	X20	Y20	Z20	X21	Y21	Z21	X22	Y22	Z22	X23	Y23	Z23	X24	Y24	Z24	X25	Y25	Z25	X26	Y26	Z26	X27	Y27	Z27	X28	Y28	Z28	X29	Y29	Z29	X30	Y30	Z30	X31	Y31	Z31	X32	Y32	Z32	X33	Y33	Z33	X34	Y34	Z34	X35	Y35	Z35	X36	Y36	Z36	X37	Y37	Z37	X38	Y38	Z38	X39	Y39	Z39	X40	Y40	Z40	X41	Y41	Z41	X42	Y42	Z42	X43	Y43	Z43	X44	Y44	Z44	X45	Y45	Z45	X46	Y46	Z46	X47	Y47	Z47	X48	Y48	Z48	X49	Y49	Z49	X50	Y50	Z50	X51	Y51	Z51	

71	0.70000000	508.76876	466.81545	-91.28214	480.96272	364.28462	-106.71964	223.09576	165.19800	-136.01883	154.25086	173.60502	-186.06247	285.30120	51.85463	-98.58112	330.98919	60.39228	-152.84568	792.48640	500.26923	-333.95053	844.92098	423.70630	-317.38413	819.23355	95.77630	-316.95090	747.92881	50.60424	-270.24997	926.57908	41.16638	-353.69218	971.87638	69.07796	-296.47255	405.55589	281.03106	-117.56369	433.09431	403.01672	-63.26824	351.54480	323.49560	-70.27087	765.98854	427.06014	-363.35115	775.46027	306.75098	-368.63699	634.05872	724.37883	-39.26262	618.21809	617.85703	-63.16381	558.89872	596.05130	-38.17928	522.42004	732.05190	-16.99002	509.61042	622.46481	-52.77422	769.15842	753.44595	-347.33677	825.86362	628.07100	-318.71732	681.45002	704.27436	-393.41703	732.80260	585.39518	-359.09835	695.96494	923.82847	-61.48267	499.42760	969.29190	-162.10048	721.54006	933.39382	-316.57349	507.11305	965.51527	-255.12588	583.61427	1406.91172	-311.13174	668.57910	1414.27190	-143.44676	660.24195	1310.04137	-446.17915	701.01799	1328.90146	-266.08718	697.94371	1315.34694	-309.62740	703.14696	1293.03248	-66.57433	590.95254	1104.69743	-39.90972	618.43381	1126.04909	17.72410	674.32923	1058.45268	35.82344	707.89200	889.12312	26.34441	685.22739	898.25079	70.64090	677.69543	1160.09421	-470.23718	604.84327	975.07465	-391.97376	607.52396	976.09354	-471.09177	653.21130	916.92449	-486.71783	700.66785	746.62156	-460.03276	657.98363	747.00185	-487.15951	612.95497	841.11908	-98.82403	632.50532	847.39300	-287.26835	622.11811	860.96910	-101.09308	636.04851	854.11894	-269.69437	
72	0.71000000	529.90460	465.49992	-90.79332	498.75275	363.40357	-105.93671	235.58067	173.45108	-135.43789	168.20958	187.38060	-185.93368	288.71706	55.37759	-98.85236	334.91105	60.83758	-152.70309	803.23537	501.42811	-334.73297	853.77965	423.22844	-317.90833	819.54181	95.52690	-317.23406	748.00733	50.68531	-270.34633	926.61729	40.71211	-354.02454	972.14080	68.13641	-296.67511	420.94380	282.65649	-116.58812	452.53122	404.26583	-63.00287	368.40909	327.53475	-69.88079	775.28593	428.45783	-364.51777	781.98044	308.09597	-369.77117	649.69009	725.37550	-39.96185	636.66900	618.49489	-62.80652	577.40302	595.39801	-38.52746	537.91359	730.72337	-18.15262	527.65070	620.70801	-53.52724	782.55509	755.50497	-346.37176	838.16809	629.57011	-318.16833	695.10692	707.23723	-394.28041	745.48076	587.71764	-360.35422	709.37818	925.24745	-62.17534	513.09270	971.00543	-161.24587	735.09042	935.43131	-316.89969	520.58828	968.14342	-254.71641	597.59201	1407.35139	-314.73230	683.76912	1416.19417	-147.75369	673.39065	1309.05207	-449.36171	715.03917	1329.52096	-269.76376	711.72425	1315.57972	-313.19807	718.19772	1295.42331	-70.06189	604.43885	1108.32950	-41.07391	632.88163	1129.72508	16.35015	688.31040	1061.46766	33.90569	719.30512	891.55602	24.94446	697.58092	901.28825	69.61271	690.54020	1158.95628	-472.63022	618.24270	974.54908	-392.42128	619.96653	975.12591	-471.60004	665.28113	915.70724	-487.48391	712.24912	745.25364	-460.47413	669.20588	745.78397	-486.98041	626.51579	842.65742	-99.20733	645.61963	849.64449	-287.67137	636.05947	861.69630	-102.17012	649.57396	856.52807	-270.64122	
73	0.72000000	552.16644	464.05271	-89.94165	518.16314	362.65896	-104.85607	249.78605	182.12238	-134.94427	184.45859	201.80982	-185.97698	292.90799	59.88607	-99.28033	339.66521	61.97444	-152.54490	813.31349	502.33067	-335.59318	862.10492	422.64947	-318.66835	819.74709	95.33267	-317.52181	748.06353	50.74637	-270.40807	926.63232	40.45056	-354.28328	972.32270	67.52659	-296.84625	437.75293	284.38655	-115.55573	473.25311	405.36972	-62.50245	386.62675	331.48231	-69.45553	783.87411	429.64067	-365.52665	787.90107	309.29480	-370.72894	665.44683	726.57809	-40.54524	655.58401	619.19097	-62.36481	596.48401	594.80581	-38.65203	553.50561	729.32275	-19.46677	546.23639	618.86283	-54.14127	795.52737	757.16225	-345.80539	849.84148	630.61946	-317.93647	708.14853	709.91064	-395.18831	757.40563	589.69996	-361.60512	722.49184	926.94607	-62.93132	526.57041	972.67477	-160.45145	748.33827	937.64455	-317.49758	533.82991	970.76519	-254.42455	611.44909	1407.96200	-318.15446	698.65737	1418.27476	-151.84036	686.57158	1308.35285	-452.29020	728.91488	1330.33155	-273.15133	725.39228	1316.03069	-316.48842	733.13227	1297.94718	-73.50270	617.74047	1112.17201	-42.03769	647.27265	1133.50735	15.07740	702.23468	1064.60829	32.00233	730.73322	894.17123	23.49913	709.97142	904.48215	68.51946	703.42481	1158.12881	-474.84043	631.54557	974.31300	-392.88497	632.44359	974.45370	-472.12171	677.37493	914.83779	-488.22093	723.94619	744.27136	-460.89263	680.57399	744.93759	-486.80009	639.95798	844.34589	-99.67889	658.56040	851.99108	-288.16770	649.85931	862.45263	-103.32340	662.88091	859.01486	-271.79114	
74	0.73000000	575.27172	462.58854	-88.73336	538.98271	362.08633	-103.55549	265.60652	191.05175	-134.60150	202.89442	216.45572	-186.31355	298.15404	65.38415	-99.84406	345.54918	63.93919	-152.30782	822.73686	502.85933	-336.44859	869.87347	421.85936	-319.63305	819.94911	95.18678	-317.77728	748.12813	50.80367	-270.43353	926.65495	40.29324	-354.47657	972.48306	67.10026	-296.97720	455.89204	286.25185	-114.52170	495.02047	406.37702	-61.78772	406.07243	335.27565	-69.00525	791.70656	430.49733	-366.33644	793.17718	310.21245	-371.45793	681.26379	727.96722	-40.97417	674.79528	619.95889	-61.80029	615.96279	594.34986	-38.49921	569.13358	727.93044	-20.93758	565.21483	617.11291	-54.52717	807.98739	758.26528	-345.70996	860.82809	631.08564	-318.05130	720.48089	712.10772	-396.09728	768.44421	591.19459	-362.75172	735.33152	928.84649	-63.75363	539.84234	974.24276	-159.82453	761.28153	939.88548	-318.34056	546.85080	973.27588	-254.33138	625.14144	1408.69427	-321.39135	713.17903	1420.46884	-155.66683	699.77539	1307.93255	-454.94954	742.63970	1331.31242	-276.21362	738.92980	1316.67622	-319.46122	747.87672	1300.57090	-76.81752	630.80609	1116.16578	-42.75176	661.55831	1137.33317	13.91910	716.05897	1067.82490	30.14387	742.15321	896.91632	22.03246	722.40176	907.78239	67.38731	716.35691	1157.59221	-476.84708	644.73404	974.34305	-393.37304	644.96966	974.05884	-472.65317	689.53020	914.29150	-488.91977	735.77604	743.65714	-461.27682	692.10861	744.43483	-486.62958	653.24998	846.11922	-100.24186	671.33613	854.30081	-288.75972	663.48158	863.19728	-104.55163	675.98954	861.45724	-273.11519	
75	0.74000000	598.91634	461.24890	-87.20083	560.89744	361.73024	-102.12889	282.85260	200.03147	-134.47531	223.21076	230.73426	-187.06634	304.87229	71.76638	-100.46448	352.97829	66.80832	-151.90153	831.53040	502.98267	-337.24856	877.07013	420.83357	-320.74333	820.20611	95.08927	-317.97264	748.21568	50.86313	-270.42058	926.69354	40.18932	-354.62132	972.64758	66.75300	-297.06640	475.21648	288.28980	-113.52707	517.55311	407.38863	-60.90503	426.57041	338.91588	-68.53258	798.78983	431.00760	-366.95695	797.81935	310.80661	-371.96064	697.08257	729.53612	-41.23815	694.15191	620.86133	-61.04926	635.64290	594.10987	-38.04788	584.76486	726.63288	-22.55522	584.41230	615.66510	-54.61625	819.86989	758.78062	-346.11308	871.13728	630.96400	-318.53558	732.05912	713.74475	-396.98257	778.57408	592.16169	-363.74630	747.94454	930.86488	-64.64009	552.87260	975.67065	-159.48031	773.93845	942.00082	-319.38027	559.66998	975.57591	-254.49583	638.65389	1409.50534	-324.44998	727.28797	1422.72148	-159.19484	712.99079	1307.77637	-457.34232	756.20202	1332.43803	-278.93112	752.31556	1317.48706	-322.09430	762.34320	1303.24452	-79.92402	643.59599	1120.22295	-43.19224	675.69382	1141.12725	12.88286	729.73775	1071.05718	28.36756	753.55464	899.73082	20.58141	734.86029	911.11607	66.25497	729.33997	1157.32322	-478.63421	657.79379	974.61183	-393.89186	657.54129	973.92886	-473.19720	701.77953	914.03947	-489.57262	747.74893	743.38444	-461.61334	703.82586	744.24392	-486.48008	666.35945	847.91529	-100.88847	683.95987	856.44333	-289.43875	676.87531	863.90974	-105.85767	688.95003	863.73037	-274.57519	
76	0.75000000	622.81746	460.18168	-85.40076	583.57832	361.65713	-100.65488	301.30461	208.81613	-134.62056	244.94301	243.98305	-188.32843	313.60610	78.81702	-101.00636	362.48301	70.57605	-151.21891	839.70211	502.75983	-337.98824	883.70156	419.63728	-321.91895	820.53972	95.04051	-318.09982	748.32880	50.92681	-270.37195	926.74574	40.10846	-354.73481	972.82098	66.42115	-297.11919	495.55408	290.53648	-112.59646	540.57984	408.53352	-59.91472	447.92499	342.45323	-68.04696	805.19275	431.23923	-367.44251	801.91532	311.13275	-372.29545	712.84923	731.29352	-41.35316	713.51969	621.98799	-60.05892	655.32984	594.16123	-37.31799	600.38889	725.51198	-24.29104	603.65514	614.69077	-54.39217	831.13742	758.78183	-347.00051	880.80814	630.35161	-319.39885	742.86460	714.85195	-397.83908	787.84722	592.66519	-364.59565	760.38219	932.92253	-65.57671	565.62105	976.94598	-159.51339	786.34194	943.87147	-320.55498	572.30820	977.59714	-254.94409	651.99678	1410.37180	-327.34141	740.96572	1424.97493	-162.39172	726.20720	1307.86679	-459.48429	769.58021	1333.67955	-281.30474	765.52896	1318.43448	-324.38573	776.44306	1305.90840	-82.74480	656.09318	1124.23251	-43.37509	689.63084	1144.80871	11.96858	743.22414	1074.24228	26.71340	764.94836	902.55719	19.19372	747.32138	914.40141	65.16856	742.37179	1157.29813	-480.19222	670.71506	975.09244	-394.44646	670.15220	974.05136	-473.76253	714.14933	914.05321	-490.17416	759.87103	743.41994	-461.88584	715.73552	744.33255	-486.35998	679.25566	849.68418	-101.60439	696.44583	858.32298	-290.18877	689.98550	864.58853	-107.23979	701.82108	865.73783	-276.12913	
